<svg width="66" height="54" viewBox="0 0 66 54" fill="none" xmlns="http://www.w3.org/2000/svg">
<g id="Group 2109">
<path id="Ellipse 10" d="M34.5 27C34.5 34.3737 32.5619 41.0261 29.4548 45.8199C26.3445 50.6186 22.1066 53.5 17.5 53.5C12.8934 53.5 8.65547 50.6186 5.54521 45.8199C2.43812 41.0261 0.5 34.3737 0.5 27C0.5 19.6263 2.43812 12.9739 5.54521 8.18007C8.65547 3.38137 12.8934 0.5 17.5 0.5C22.1066 0.5 26.3445 3.38137 29.4548 8.18007C32.5619 12.9739 34.5 19.6263 34.5 27Z" fill="#FCFCFC" stroke="black"/>
<path id="Ellipse 11" d="M65.5 27C65.5 34.3737 63.5619 41.0261 60.4548 45.8199C57.3445 50.6186 53.1066 53.5 48.5 53.5C43.8934 53.5 39.6555 50.6186 36.5452 45.8199C33.4381 41.0261 31.5 34.3737 31.5 27C31.5 19.6263 33.4381 12.9739 36.5452 8.18007C39.6555 3.38137 43.8934 0.5 48.5 0.5C53.1066 0.5 57.3445 3.38137 60.4548 8.18007C63.5619 12.9739 65.5 19.6263 65.5 27Z" fill="#FCFCFC" stroke="black"/>
<ellipse id="Ellipse 12" cx="9.5" cy="29" rx="9.5" ry="15" fill="#181818"/>
<ellipse id="Ellipse 13" cx="40.5" cy="29" rx="9.5" ry="15" fill="#181818"/>
</g>
</svg>
