<svg width="488" height="482" viewBox="0 0 488 482" fill="none" xmlns="http://www.w3.org/2000/svg">
<g opacity="0.5">
<mask id="mask0_2185_9565" style="mask-type:alpha" maskUnits="userSpaceOnUse" x="0" y="0" width="488" height="482">
<rect width="488" height="482" fill="#EC8D49"/>
</mask>
<g mask="url(#mask0_2185_9565)">
<path d="M221.248 270.941C220.849 271.386 220.45 271.808 220.029 272.184C219.983 271.647 219.96 271.056 219.914 270.496C220.358 270.634 220.803 270.78 221.248 270.941Z" fill="#FCFCFC"/>
<path d="M219.914 270.496C219.96 271.056 219.983 271.647 220.029 272.184C220.45 271.808 220.849 271.386 221.248 270.941C220.803 270.78 220.358 270.634 219.914 270.496Z" fill="#FCFCFC"/>
<path d="M221.248 270.941C220.849 271.386 220.45 271.808 220.029 272.184C219.983 271.647 219.96 271.056 219.914 270.496C220.358 270.634 220.803 270.78 221.248 270.941Z" fill="#222020"/>
<path d="M125.715 542.45V542.496C125.715 542.496 125.762 542.473 125.785 542.45H125.715ZM125.715 542.45V542.496C125.715 542.496 125.762 542.473 125.785 542.45H125.715Z" fill="#222020"/>
<path d="M461.375 152.077C456.682 145.677 444.944 147.411 428.889 150.58L425.699 151.186C415.594 153.089 356.036 155.998 323.926 157.333C318.375 150.956 298.594 130.636 266.928 122.917L275.247 23.5969C275.531 20.4047 275.906 9.70761 268.845 6.70722C261.699 3.63776 253.871 11.1426 247.845 18.0105C207.278 64.2518 212.599 102.958 219.584 122.172C209.616 124.16 199.542 127.521 189.413 132.21C142 154.095 124.258 183.324 112.842 220.387C103.84 224.193 70.933 239.863 67.1607 268.079C64.2319 290.087 79.7886 313.453 113.447 337.564C122.571 344.109 131.848 349.995 141.271 355.182C144.177 356.825 147.106 358.375 150.058 359.848C150.058 359.848 150.058 359.871 150.081 359.871L150.058 359.894C147.152 361.613 143.595 363.792 139.608 366.44C121.467 378.457 94.3025 399.943 76.7447 429.824C60.429 457.579 56.9865 496.193 68.5639 521.647C72.9035 531.216 79.0909 538.344 86.7273 542.711C82.2037 559.386 76.8597 582.069 73.4862 606.325C72.0371 616.769 71.048 626.714 70.5343 636.145C59.3326 651.201 3.56944 723.149 -47.0567 737.345C-67.804 743.161 -82.0956 747.689 -93.604 751.349C-114.206 757.918 -122.762 760.611 -137.199 760.611C-151.637 760.611 -178.173 765.4 -179.905 776.872C-181.216 785.712 -168.543 789.633 -164.364 790.922C-148.363 795.849 -114.704 800 -76.0769 800C-40.3096 800 -0.294785 796.432 33.8777 786.61C33.9007 786.817 33.9237 787.055 33.9697 787.262L34.6521 790.991L191.476 795.987L190.916 790.638C190.188 783.694 189.436 771.899 189.582 759.276C195.348 757.258 209.149 752.101 222.229 744.919C222.719 763.005 220.657 782.734 219.108 792.756L218.288 798.151H380.042L380.724 794.275C380.885 793.385 384.328 772.39 369.936 756.345C359.793 745.041 343.684 739.294 321.94 739.217C329.155 726.648 340.663 698.309 341.438 644.732C345.003 646.182 349.243 647.218 353.881 647.218C360.191 647.218 367.199 645.315 374.23 640.035C393.988 625.21 378.163 597.27 373.877 590.517C375.702 566.307 367.008 524.532 366.586 522.537C350.155 458.424 313.591 407.309 292.897 382.186C309.749 379.063 319.264 374.888 319.402 374.819C326.786 371.412 343.124 358.605 346.59 340.756C349.028 328.202 344.98 315.794 334.522 303.784C338.294 292.55 351.466 249.478 344.228 212.414C354.962 217.648 373.241 223.817 394.502 219.543C419.934 214.41 442.245 195.832 460.907 164.186C463.529 159.305 463.69 155.223 461.375 152.077ZM254.898 24.2108C261.063 17.1664 264.16 15.7621 265.119 15.4782C265.755 16.6983 266.154 20.0517 265.916 22.7988L257.666 121.067C248.243 119.632 238.682 119.494 228.999 120.645H228.976C222.512 104.132 216.225 68.2881 254.898 24.2108ZM148.256 372.072C150.671 370.522 152.849 369.187 154.75 368.059C153.109 375.663 153.155 382.746 153.316 386.099L144.645 396.635L148.256 372.072ZM77.0974 517.771C66.8541 495.249 70.1816 459.475 84.8105 434.589C99.2018 410.126 120.9 391.31 137.729 379.224L133.114 410.663L88.8895 464.401C87.2257 466.419 87.5247 469.381 89.5182 471.024C91.5116 472.658 94.4635 472.382 96.1042 470.387L130.491 428.604V428.581L162.977 389.1L162.785 387.181C162.387 383.283 162.41 374.627 164.802 366.701C165.722 363.623 167.01 360.669 168.766 358.137C169.494 357.032 170.338 356.026 171.273 355.113C175.82 350.678 182.053 349.036 190.349 350.072C201.251 351.43 207.746 356.31 209.685 364.567C210.207 366.724 210.391 369.003 210.299 371.274C210.207 374.42 209.616 377.605 208.681 380.636C206.312 388.302 201.811 395.085 197.709 397.809C192.603 401.209 188.263 412.236 179.76 434.85C178.02 439.401 176.172 444.304 174.202 449.415C171.135 457.319 167.754 465.721 164.027 474.07C149.613 506.583 130.346 538.367 105.788 538.367C104.024 538.367 102.223 538.183 100.398 537.853C99.5775 537.715 98.8031 537.523 98.0287 537.293C94.7472 536.426 91.8873 535.014 89.4032 533.257C83.3308 529.082 79.4666 522.982 77.0974 517.771ZM217.866 382.37C226.844 383.897 235.892 384.856 245.008 385.278L247.093 507.266H172.331L173.335 476.341C179.055 463.204 184.069 449.929 188.524 438.157C193.891 423.915 199.986 407.754 202.915 405.621C209.195 401.416 215.029 392.361 217.866 382.37ZM33.0803 777.056C-36.3917 797.652 -131.434 791.229 -161.604 781.936C-167.278 780.202 -169.501 778.698 -170.298 777.977C-167.439 774.969 -153.047 769.996 -137.199 769.996C-121.351 769.996 -111.721 766.973 -90.7671 760.312C-79.3354 756.675 -65.1052 752.147 -44.5266 746.377C-19.4013 739.34 9.26614 719.043 40.6708 686.062C52.8155 673.301 63.0588 661.008 70.0666 652.167C70.0896 688.479 77.8488 716.158 93.2444 734.836C79.0449 735.488 54.97 738.895 41.9895 753.529C36.2162 760.005 33.2413 767.863 33.0803 777.056ZM189.904 749.17C190.801 733.025 193.515 717.332 199.917 710.226C202.095 707.786 204.464 706.658 207.347 706.658C210.23 706.658 212.269 707.74 214.209 710.011C218.388 714.892 220.611 723.924 221.592 734.46C210.299 741.166 197.288 746.423 189.904 749.17ZM309.42 740.982L301.147 749.661L313.123 748.886C336.584 747.359 353.345 751.955 362.906 762.537C370.994 771.5 371.93 782.903 371.792 788.766H229.145C230.456 778.629 232.679 757.45 231.345 738.074C231.253 736.946 231.161 735.841 231.061 734.736C229.896 722.143 227.082 710.625 221.316 703.895C217.613 699.575 212.783 697.273 207.347 697.273C201.911 697.273 196.912 699.529 192.956 703.941C177.414 721.23 179.737 769.344 181.095 786.257L42.6642 781.867C42.6412 781.683 42.6182 781.491 42.6182 781.33C42.5492 780.532 42.5032 779.78 42.4802 779.028V779.005C42.2195 771.262 44.374 764.955 48.9743 759.767C64.7226 742.01 103.534 744.167 103.932 744.19L117.457 745.011L107.329 736.01C83.7985 715.084 78.0558 677.498 79.8192 639.383C79.9342 637.365 80.0493 635.37 80.1873 633.352V633.329C82.3494 600.769 89.5872 568.417 95.5215 546.348C96.549 546.624 97.607 546.862 98.6574 547.069C101.218 547.537 103.702 547.775 106.141 547.775C113.125 547.775 119.635 545.872 125.707 542.496V542.45H125.776C140.689 534.17 152.964 517.065 163.261 497.459L162.647 516.643H256.639L254.385 385.516H255.397C260.104 385.516 264.582 385.37 268.845 385.117L287.622 516.367L318.306 518.708C327.959 566.1 331.639 604.192 331.923 634.549C331.946 635.746 331.946 636.92 331.946 638.094C332.015 715.291 309.726 740.652 309.42 740.982ZM357.447 524.67C357.539 525.092 366.655 568.77 364.408 591.269L364.24 592.981L365.206 594.385C365.39 594.669 383.507 621.342 368.602 632.531C356.603 641.539 345.823 636.897 341.415 634.219C341.062 602.527 337.052 562.816 326.786 513.359L326.065 509.914L295.826 507.565L278.199 384.319C279.51 384.173 280.798 384.012 282.071 383.851C301.17 406.273 340.456 458.354 357.447 524.67ZM452.749 159.558C435.613 188.626 415.433 205.685 392.769 210.327C363.565 216.259 339.866 199.093 339.636 198.924L327.706 190.038L332.39 204.158C345.915 244.835 324.984 302.656 324.769 303.247L323.765 305.964L325.758 308.074C335.457 318.426 339.375 328.816 337.382 338.945C334.591 353.402 320.345 364.053 315.492 366.278C315.185 366.417 304.168 370.875 285.674 373.714C282.914 374.136 279.978 374.512 276.865 374.842C276.021 374.934 275.178 375.026 274.312 375.095C272.104 375.31 269.834 375.495 267.488 375.64C263.294 375.871 258.862 376.016 254.224 376.016C251.195 376.016 248.059 375.917 244.847 375.778C236.904 375.379 228.439 374.535 219.553 373.031C219.837 369.394 219.63 365.81 218.832 362.411C217.168 355.39 211.426 343.242 191.522 340.756C180.366 339.375 171.342 341.93 164.733 348.399C162.908 350.187 161.382 352.159 160.094 354.269C156.598 352.627 153.063 350.839 149.498 348.944C148.893 348.637 148.256 348.307 147.62 347.954C138.182 342.843 128.59 336.888 118.891 329.944C88.2991 308.005 74.0229 287.647 76.438 269.368C79.9572 242.909 117.925 228.46 118.301 228.322L120.509 227.501L121.16 225.268C132.132 188.58 148.049 161.63 193.331 140.75C203.851 135.893 214.263 132.563 224.529 130.805L224.897 130.752C226.4 130.475 227.879 130.26 229.375 130.099L229.474 130.076C233.668 129.539 237.816 129.278 241.964 129.278C248.389 129.278 254.714 129.907 260.971 131.181C296.807 138.448 317.715 164.516 318.114 165.007L319.594 166.902L322.009 166.81C325.758 166.672 413.838 162.988 427.432 160.41L430.691 159.773C436.058 158.714 449.958 155.998 453.57 157.571C453.47 157.947 453.263 158.599 452.749 159.558Z" fill="#EC8D49"/>
<path d="M371.792 788.766H229.145C230.456 778.629 232.679 757.45 231.345 738.074C231.253 736.946 231.161 735.841 231.061 734.736C229.896 722.143 227.082 710.625 221.316 703.895C217.613 699.575 212.783 697.273 207.347 697.273C201.911 697.273 196.912 699.529 192.956 703.941C177.414 721.23 179.737 769.344 181.095 786.257L42.6642 781.867C42.6412 781.683 42.6182 781.491 42.6182 781.33C42.5492 780.532 42.5032 779.78 42.4802 779.028V779.005C42.2195 771.262 44.374 764.955 48.9743 759.767C64.7226 742.01 103.534 744.167 103.932 744.19L117.457 745.011L107.329 736.01C83.7985 715.084 78.0558 677.498 79.8192 639.383C79.9342 637.365 80.0493 635.37 80.1873 633.352V633.329C82.3494 600.769 89.5872 568.417 95.5215 546.348C96.549 546.624 97.607 546.862 98.6574 547.069C101.218 547.537 103.702 547.775 106.141 547.775C113.125 547.775 119.635 545.872 125.707 542.496L125.332 546.747C125.263 547.515 123.691 566.077 126.413 589.482C130.093 621.297 139.608 645.553 154.659 661.575C168.176 675.956 185.879 683.246 207.324 683.246C208.145 683.246 208.988 683.223 209.808 683.2C232.848 682.617 251.924 674.291 266.53 658.452C281.619 642.077 291.632 618.319 296.271 587.747C299.69 565.225 298.778 547.637 298.755 546.885L298.494 542.45L125.776 542.45C140.689 534.17 152.964 517.065 163.261 497.459L162.647 516.643H256.639L254.385 385.516H255.397C260.104 385.516 264.582 385.37 268.845 385.117L287.622 516.367L318.306 518.708C327.959 566.1 331.639 604.192 331.923 634.549C331.946 635.746 331.946 636.92 331.946 638.094C332.015 715.291 309.726 740.652 309.42 740.982L301.147 749.661L313.123 748.886C336.584 747.359 353.345 751.955 362.906 762.537C370.994 771.5 371.93 782.903 371.792 788.766Z" fill="#EC8D49"/>
<path d="M368.602 632.531C356.603 641.539 345.823 636.897 341.415 634.219C341.062 602.527 337.052 562.816 326.786 513.359L326.065 509.914L295.826 507.565L278.199 384.319C279.51 384.173 280.798 384.012 282.071 383.851C301.17 406.273 340.456 458.354 357.447 524.67C357.539 525.092 366.655 568.77 364.408 591.269L364.24 592.981L365.206 594.385C365.39 594.669 383.507 621.342 368.602 632.531Z" fill="#FBD8BF"/>
<path d="M247.093 507.266H172.331L173.335 476.341C179.055 463.204 184.069 449.929 188.524 438.157C193.891 423.915 199.986 407.754 202.915 405.621C209.195 401.416 215.029 392.361 217.866 382.37C226.844 383.897 235.892 384.856 245.008 385.278L247.093 507.266Z" fill="#FBD8BF"/>
<path d="M210.299 371.274C210.207 374.42 209.616 377.605 208.681 380.636C206.312 388.302 201.811 395.085 197.709 397.809C192.603 401.209 188.263 412.236 179.76 434.85C178.02 439.401 176.172 444.304 174.202 449.415C171.135 457.319 167.754 465.721 164.027 474.07C149.613 506.583 130.346 538.367 105.788 538.367C104.024 538.367 102.223 538.183 100.398 537.853C99.5775 537.715 98.8031 537.523 98.0287 537.293C94.7472 536.426 91.8873 535.014 89.4032 533.257C83.3308 529.082 79.4666 522.982 77.0974 517.771C66.8541 495.249 70.1816 459.475 84.8105 434.589C99.2018 410.126 120.9 391.31 137.729 379.224L133.114 410.663L88.8895 464.401C87.2257 466.419 87.5247 469.381 89.5182 471.024C91.5116 472.658 94.4635 472.382 96.1042 470.387L130.491 428.604V428.581L162.977 389.1L162.785 387.181C162.387 383.283 162.41 374.627 164.802 366.701C165.722 363.623 167.01 360.669 168.766 358.137C169.494 357.032 170.338 356.026 171.273 355.113C175.82 350.678 182.053 349.036 190.349 350.072C201.251 351.43 207.746 356.31 209.685 364.567C210.207 366.724 210.391 369.003 210.299 371.274Z" fill="#FBD8BF"/>
<path d="M265.916 22.7988L257.666 121.067C248.243 119.632 238.682 119.494 228.999 120.645H228.976C222.512 104.132 216.225 68.2881 254.898 24.2108C261.063 17.1664 264.16 15.7621 265.119 15.4782C265.755 16.6983 266.154 20.0517 265.916 22.7988Z" fill="#FBD8BF"/>
<path d="M430.691 159.773L427.432 160.41C413.838 162.988 325.758 166.672 322.009 166.81L319.594 166.902L318.114 165.007C317.715 164.516 296.807 138.448 260.971 131.181C254.714 129.907 248.389 129.278 241.964 129.278C237.816 129.278 233.668 129.539 229.474 130.076L229.375 130.099C227.879 130.26 226.4 130.475 224.897 130.752L224.529 130.805C214.263 132.563 203.851 135.893 193.331 140.75C148.049 161.63 132.132 188.58 121.16 225.268L120.509 227.501L118.301 228.322C117.925 228.46 79.9572 242.909 76.438 269.368C74.0229 287.647 88.2991 308.005 118.891 329.944C128.59 336.888 138.182 342.843 147.62 347.954C148.256 348.307 148.893 348.637 149.498 348.944C153.063 350.839 156.598 352.627 160.094 354.269C161.382 352.159 162.908 350.187 164.733 348.399C171.342 341.93 180.366 339.375 191.522 340.756C211.426 343.242 217.168 355.39 218.832 362.411C219.63 365.81 219.837 369.394 219.553 373.031C228.439 374.535 236.904 375.379 244.847 375.778C248.059 375.917 251.195 376.016 254.224 376.016C258.862 376.016 263.294 375.871 267.488 375.64C269.834 375.495 272.104 375.31 274.312 375.095C275.178 375.026 276.021 374.934 276.865 374.842C279.978 374.512 282.914 374.136 285.674 373.714C304.168 370.875 315.185 366.417 315.492 366.278C320.345 364.053 334.591 353.402 337.382 338.945C339.375 328.816 335.457 318.426 325.758 308.074L323.765 305.964L324.769 303.247C324.984 302.656 345.915 244.835 332.39 204.158L327.706 190.038L339.636 198.924C339.866 199.093 363.565 216.259 392.769 210.327C415.433 205.685 435.613 188.626 452.749 159.558C453.263 158.599 453.47 157.947 453.57 157.571C449.958 155.998 436.058 158.714 430.691 159.773ZM265.142 265.056C259.844 279.482 249.793 289.78 240.209 291.89C240.163 292.082 240.109 292.266 240.04 292.458C237.441 299.564 224.974 301.482 212.224 296.771C199.849 292.22 191.76 283.073 193.654 276.06C188.387 270.941 186.04 261.61 187.167 250.982C186.301 247.506 186.554 243.147 188.172 238.781C189.437 235.359 191.338 232.45 193.516 230.363C201.229 215.768 213.811 207.35 223.847 211.056C230.525 213.519 234.604 220.863 235.493 230.286C242.271 223.695 250.122 220.74 256.823 223.227C268.355 227.501 272.081 246.217 265.142 265.056Z" fill="#FBD8BF"/>
<path d="M256.823 223.227C250.122 220.74 242.271 223.695 235.493 230.286C234.604 220.863 230.525 213.519 223.847 211.056C213.811 207.35 201.229 215.768 193.516 230.363C196.659 227.332 200.363 226.02 203.552 227.194C208.965 229.189 210.836 237.607 207.746 246.01C204.649 254.382 197.756 259.569 192.366 257.574C189.767 256.607 187.988 254.197 187.167 250.982C186.04 261.61 188.387 270.941 193.654 276.06C193.731 275.845 193.8 275.638 193.869 275.423C196.376 268.647 207.792 266.583 219.906 270.496C220.351 270.634 220.795 270.78 221.248 270.941C221.386 270.987 221.547 271.064 221.693 271.11C234.114 275.684 242.248 284.877 240.209 291.89C249.793 289.78 259.844 279.482 265.142 265.056C272.081 246.217 268.355 227.501 256.823 223.227ZM246.205 258.203C243.115 266.606 236.222 271.785 230.832 269.79C228.678 269 227.083 267.212 226.14 264.795C224.714 261.134 224.76 256.047 226.638 250.982C228.509 245.91 231.767 242.019 235.264 240.162C237.533 238.973 239.902 238.62 242.034 239.418C247.424 241.405 249.302 249.808 246.205 258.203Z" fill="#FCF0E8"/>
<path d="M240.209 291.89C240.163 292.082 240.109 292.266 240.04 292.458C237.441 299.564 224.974 301.482 212.224 296.771C199.849 292.22 191.76 283.073 193.654 276.06C193.731 275.845 193.8 275.638 193.869 275.423C196.376 268.647 207.792 266.583 219.906 270.496C220.351 270.634 220.795 270.78 221.248 270.941C221.386 270.987 221.547 271.064 221.693 271.11C234.114 275.684 242.248 284.877 240.209 291.89Z" fill="#EC8D49"/>
<path d="M246.212 258.203C243.114 266.598 236.229 271.785 230.839 269.79C228.685 268.992 227.09 267.212 226.155 264.795C224.729 261.134 224.775 256.047 226.645 250.974C228.524 245.91 231.775 242.012 235.271 240.162C237.548 238.965 239.91 238.612 242.041 239.41C247.431 241.405 249.31 249.8 246.212 258.203Z" fill="#EC8D49"/>
<path d="M207.746 246.01C204.649 254.382 197.756 259.569 192.366 257.574C189.767 256.607 187.988 254.197 187.167 250.982C186.301 247.506 186.554 243.147 188.172 238.781C189.437 235.359 191.338 232.45 193.516 230.363C196.659 227.332 200.363 226.02 203.552 227.194C208.965 229.189 210.836 237.607 207.746 246.01Z" fill="#EC8D49"/>
<path d="M298.755 546.885L298.494 542.45L125.707 542.45V542.496L125.332 546.747C125.263 547.515 123.691 566.077 126.413 589.482C130.093 621.297 139.608 645.553 154.659 661.575C168.176 675.956 185.879 683.246 207.324 683.246C208.145 683.246 208.988 683.223 209.808 683.2C232.848 682.617 251.924 674.291 266.53 658.452C281.619 642.077 291.632 618.319 296.271 587.747C299.69 565.225 298.778 547.637 298.755 546.885ZM259.637 652.098C246.817 666.003 229.965 673.301 209.57 673.838C189.789 674.29 173.619 668.044 161.497 655.168C133.397 625.233 133.727 567.926 134.425 551.835H289.477C289.592 567.619 287.783 621.596 259.637 652.098Z" fill="#222020"/>
</g>
</g>
<path fill-rule="evenodd" clip-rule="evenodd" d="M99.5154 184.029C106.657 176.064 111 165.539 111 154C111 129.147 90.8528 109 66 109C41.1472 109 21 129.147 21 154C21 178.853 41.1472 199 66 199C74.2753 199 82.0289 196.766 88.6907 192.869L100.633 198.64C103.192 199.877 105.876 197.193 104.64 194.634L99.5154 184.029Z" fill="#F9B482"/>
<path d="M62.3164 158.004L60.9102 137.516H70.5977L69.25 158.004H62.3164ZM65.793 170.113C63.1172 170.113 60.9102 168.062 60.9102 165.504C60.9102 163.004 63.1367 160.992 65.7539 160.992C68.4492 160.992 70.6758 163.121 70.6758 165.602C70.6758 168.121 68.4492 170.113 65.793 170.113Z" fill="#EC8D49"/>
</svg>
