<svg width="312" height="425" viewBox="0 0 312 425" fill="none" xmlns="http://www.w3.org/2000/svg">
<g clip-path="url(#clip0_1810_9039)">
<path d="M85.2573 125.256C85.2573 127.478 85.0032 129.587 84.5332 131.53C84.241 132.801 83.8472 133.995 83.3771 135.1C83.2628 135.354 83.1611 135.608 83.0341 135.849C81.1031 139.901 78.0795 142.518 74.6875 142.518C73.7347 142.518 72.7946 142.302 71.918 141.895C68.7039 140.498 66.1249 136.7 64.8926 131.772C64.3845 129.752 64.105 127.567 64.105 125.256C64.105 123.998 64.1939 122.766 64.3591 121.585C65.3754 113.824 69.6059 108.006 74.6875 108.006C78.0795 108.006 81.1031 110.61 83.0341 114.662C83.6693 115.983 84.1902 117.482 84.5586 119.082C85.0159 121 85.2573 123.083 85.2573 125.256Z" fill="#FCFCFC"/>
<path d="M101.963 125.256C101.963 132.547 99.1934 138.783 95.2678 141.311C94.0609 142.086 92.7524 142.518 91.3804 142.518C87.9884 142.518 84.9775 139.901 83.0338 135.849C82.9067 135.608 82.8051 135.366 82.7035 135.112C81.5093 132.318 80.8105 128.926 80.8105 125.256C80.8105 121.267 81.649 117.583 83.0338 114.662C84.9775 110.61 87.9884 108.006 91.3804 108.006C97.2242 108.006 101.963 115.729 101.963 125.256Z" fill="#FCFCFC"/>
<path d="M95.2808 141.59C95.2808 145.172 90.0467 148.081 83.5931 148.081C77.1394 148.081 72.2102 145.338 71.918 141.895C71.9053 141.794 71.9053 141.692 71.9053 141.59C71.9053 138.174 76.6566 135.354 82.7038 135.112C82.9197 135.1 83.1484 135.087 83.3771 135.1C83.4533 135.087 83.5295 135.087 83.5931 135.087C89.8816 135.087 95.0013 137.856 95.2681 141.311C95.2681 141.4 95.2681 141.502 95.2681 141.59H95.2808Z" fill="#222020"/>
<path d="M73.252 126.208C73.252 130.451 71.0287 133.893 68.2974 133.893C66.9761 133.893 65.7693 133.093 64.8927 131.772C63.9399 130.362 63.3555 128.393 63.3555 126.208C63.3555 124.468 63.7239 122.868 64.3591 121.585C65.2611 119.73 66.6839 118.523 68.2974 118.523C71.0287 118.523 73.252 121.966 73.252 126.208Z" fill="#222020"/>
<path d="M87.4424 133.004C90.1787 133.004 92.397 129.563 92.397 125.319C92.397 121.075 90.1787 117.634 87.4424 117.634C84.706 117.634 82.4878 121.075 82.4878 125.319C82.4878 129.563 84.706 133.004 87.4424 133.004Z" fill="#222020"/>
<path d="M283.835 392.686C275.488 389.676 266.85 386.564 259.507 382.664C228.42 366.215 196.24 308.039 194.144 304.178C197.434 300.888 199.276 296.95 199.632 292.466C200.471 281.809 192.48 271.495 190.689 269.323L167.148 200.223L165.306 194.825L159.945 179.062L158.293 174.235L151.827 155.245C158.318 142.772 157.061 120.683 156.032 110.483C169.46 117.444 186.89 114.408 196.736 111.728C206.937 108.946 214.585 98.9495 217.367 90.8456C219.006 86.095 218.93 82.17 217.151 79.8074C215.995 78.2705 214.064 75.692 171.925 73.0753C153.77 71.9575 135.794 71.3224 132.059 71.1954C129.556 69.6458 120.257 64.2728 107.616 62.2404C105.241 57.7693 98.6092 45.4101 91.4441 33.0891C72.8453 1.06705 68.8308 0.393836 66.8997 0.0762828C65.2228 -0.203164 62.6566 0.203304 59.9506 3.72179C53.624 11.9655 48.3391 35.6168 54.0051 48.0903C58.1085 57.1088 65.1212 64.5141 69.936 68.8963C67.8653 70.0649 65.7945 71.4114 63.711 72.9229C38.2647 91.4299 33.2212 118.689 32.3446 125.383C26.7294 128.177 5.43731 139.85 4.09067 156.528C3.39195 165.242 8.1941 173.676 18.4082 181.653C13.8347 183.012 7.63512 185.857 3.69685 191.688C-0.482802 197.861 -1.11801 205.851 1.80394 215.441C10.6206 244.414 26.7167 259.606 48.4915 259.606H48.7583C47.3354 266.579 46.0523 274.175 44.9852 282.419L32.3065 281.923L32.1794 284.438C32.154 284.972 31.5696 297.674 35.1014 312.777C36.5751 319.039 38.5315 324.768 40.9707 329.925C40.7039 339.185 40.4752 373.341 51.5151 390.438C47.4625 390.946 41.2629 392.025 34.8981 394.261C20.2249 399.38 11.8656 408.17 10.7222 419.652C10.5825 421.012 11.0398 422.371 11.9545 423.387C12.8946 424.416 14.2158 425 15.6133 425H181.834C184.324 425 186.611 423.857 187.944 421.926C188.821 420.656 190.028 417.963 188.173 414.267C186.915 411.764 185.01 407.293 183.422 403.495C202.491 413.289 227.162 417.239 237.668 418.547C244.859 419.449 262.683 419.843 278.22 419.437C309.878 418.624 310.882 415.639 311.543 413.657C314.808 403.851 300.452 398.681 283.835 392.686ZM186.039 271.419L186.191 271.889L186.534 272.27C186.611 272.371 195.326 282.444 194.563 292.072C194.271 295.858 192.569 298.995 189.355 301.663C185.099 305.219 181.211 306.654 177.807 305.956C173.004 304.978 170.413 299.986 170.387 299.948L169.574 298.347L167.808 298.551C166.69 298.69 163.133 298.741 161.456 297.255C161.05 296.887 160.491 296.226 160.491 294.727C160.491 288.592 166.919 284.184 166.983 284.134L168.761 282.952L145.78 230.645C151.7 219.162 158.42 210.245 163.26 204.58L186.039 271.419ZM154.926 264.115C148.015 264.471 138.856 264.382 134.244 264.306C136.023 254.144 139.161 244.859 142.87 236.653L154.926 264.115ZM58.6294 45.9817C53.8908 35.5533 58.515 13.947 63.9778 6.82111C65.1339 5.30955 65.9088 5.06821 65.9724 5.06821C70.279 6.64328 86.9214 34.2196 101.506 61.5672C93.3624 61.0718 84.2154 62.1769 74.8144 66.4194C70.4315 62.6088 62.7709 55.1018 58.6294 45.9817ZM9.15961 156.947C10.43 141.095 35.5206 129.485 35.7747 129.371L37.134 128.749L37.2484 127.263C37.2738 126.958 40.0814 96.3964 66.7092 77.0257C69.1738 75.222 71.6384 73.6977 74.0776 72.4148C75.7164 71.5511 77.3552 70.7889 78.9686 70.1411C88.0394 66.4575 96.7417 65.8732 104.288 66.7243C105.482 66.864 106.651 67.0291 107.782 67.2451C120.422 69.4679 129.15 75.3363 129.823 75.7936L130.446 76.2254L131.195 76.2509C168.101 77.4194 208.563 80.252 213.175 82.9957C213.53 83.6943 213.772 85.6631 212.565 89.1943C210.126 96.2948 203.443 104.627 195.389 106.825C187.233 109.048 166.919 113.176 154.431 103.459L149.426 99.5719L150.353 105.834C150.404 106.177 155.206 139.431 146.859 153.721L146.275 154.725L153.758 176.699C128.184 193.288 108.798 252.759 105.253 264.242H68.9451C69.0722 247.628 80.0739 209.75 82.9323 200.16C109.268 197.835 128.731 185.946 130.077 185.108C131.271 184.359 131.627 182.796 130.89 181.602C130.141 180.408 128.578 180.053 127.384 180.789C126.114 181.589 107.629 192.882 82.6782 195.117C81.5984 195.219 80.5185 195.295 79.426 195.359C78.2572 195.422 77.1011 195.46 75.907 195.486H75.8943C74.9033 195.498 73.887 195.498 72.8834 195.486C65.1974 195.371 57.0922 194.292 48.8091 191.738C47.3354 191.294 45.8618 190.799 44.3754 190.24C38.2774 188.004 32.1286 184.93 26.0052 180.853C25.9671 180.827 25.929 180.802 25.8782 180.764C14.1523 172.927 8.52441 164.912 9.17231 156.947H9.15961ZM50.9053 197.62C57.2573 199.271 63.4823 200.147 69.4914 200.439C69.5295 200.439 69.5676 200.452 69.6057 200.452C68.907 201.735 68.0177 203.272 67.0014 204.949C66.9887 204.974 66.976 204.987 66.9633 204.999C61.907 213.307 53.5096 224.993 46.5986 226.936C44.9852 227.393 43.6385 227.254 42.3808 226.504C38.379 224.091 36.1177 221.665 35.8509 219.48C35.6222 217.689 36.7783 216.266 37.693 215.314C37.8963 215.187 38.3536 214.92 38.7475 214.704C42.114 212.76 49.1394 208.708 50.7147 201.887C51.045 200.478 51.1086 199.055 50.9053 197.62ZM6.6569 213.967C4.21772 205.927 4.62425 199.398 7.8892 194.558C12.3865 187.864 21.2285 186.01 23.9599 185.591C31.0615 190.227 38.1885 193.58 45.2266 195.93C45.9507 197.62 46.1285 199.207 45.7728 200.744C44.693 205.406 38.9634 208.708 36.2066 210.296C35.1776 210.893 34.6186 211.211 34.1994 211.643C31.5823 214.259 30.439 217.105 30.8074 220.102C31.2775 223.951 34.301 227.571 39.7638 230.848C41.3518 231.801 43.0541 232.284 44.8454 232.284C45.8618 232.284 46.9035 232.131 47.9833 231.826C51.1848 230.924 54.6403 228.613 58.3118 224.942C55.4025 232.982 52.4425 242.788 49.8381 254.5C24.6332 255.274 12.4627 233.02 6.6569 213.967ZM37.223 287.208L128.718 290.764C123.217 302.933 103.195 344.202 81.4714 351.912C76.1229 353.817 71.1937 353.487 66.417 350.921C56.8889 345.79 50.4479 337.66 46.1158 328.832C45.5569 327.702 45.036 326.559 44.5532 325.403C37.9979 310.008 37.2484 293.406 37.223 287.208ZM51.2864 374.751H51.2356C50.9307 374.751 50.6385 374.801 50.359 374.903C47.0305 362.988 46.1794 348.521 46.0269 338.816C50.8799 345.993 56.927 351.582 64.0032 355.393C67.4841 357.272 71.1175 358.212 74.8398 358.212C77.5712 358.212 80.3534 357.704 83.1737 356.701C110.703 346.92 133.914 291.691 134.892 289.354L136.29 285.975L50.0668 282.609C55.2882 242.699 65.8707 218.057 71.9052 206.625C71.9179 206.613 71.9179 206.6 71.9306 206.587C73.0231 204.517 73.9632 202.891 74.7128 201.684C74.7255 201.633 74.7636 201.583 74.789 201.544C74.8144 201.494 74.8271 201.468 74.8398 201.456C75.0558 201.113 75.2463 200.808 75.4242 200.541C76.1356 200.541 76.8344 200.516 77.5331 200.49C73.7727 213.192 62.8471 251.667 63.9397 266.96L64.1176 269.323H109.039L109.573 267.507C109.624 267.316 115.34 248.06 124.538 227.495C134.867 204.377 145.462 188.715 155.46 181.666L161.342 198.966C156.311 204.542 148.371 214.412 141.46 227.749C141.447 227.749 141.447 227.762 141.447 227.762C141.028 228.587 140.596 229.413 140.19 230.264C135.121 240.527 130.776 252.696 128.756 266.414L128.337 269.247L131.208 269.323C131.589 269.336 136.404 269.463 142.286 269.463C147.126 269.463 152.703 269.374 157.099 269.069L162.435 281.238C159.894 283.435 155.397 288.236 155.397 294.727C155.397 297.318 156.324 299.516 158.09 301.078C160.72 303.39 164.543 303.746 166.716 303.708C168.19 305.892 171.48 309.83 176.714 310.922C177.641 311.126 178.569 311.215 179.522 311.215C182.672 311.215 185.924 310.148 189.278 308.014C195.516 340.048 191.463 362.874 186.306 377.227L106.981 375.767C103.043 364.03 103.297 352.179 103.31 351.963C103.348 350.566 102.243 349.384 100.845 349.346C99.4095 349.321 98.2789 350.413 98.2281 351.811C98.2281 352.23 97.9486 362.29 100.959 373.506C101.163 374.242 101.366 374.966 101.582 375.678L51.2737 374.751H51.2864ZM15.7912 419.97C18.2812 397.132 56.0504 395.087 56.4316 395.074L61.8816 394.82L58.1847 390.806C55.6058 388.012 53.5604 384.214 51.947 379.844L103.399 380.784C106.41 388.227 110.665 394.007 115.988 397.919C101.201 399.431 86.8452 405.744 84.6474 419.945L15.7912 419.97ZM183.625 416.54C184.413 418.103 183.955 418.751 183.765 419.03C183.384 419.576 182.647 419.919 181.834 419.919L89.8052 419.945C93.4259 402.2 122.074 402.555 125.466 402.67C126.723 402.695 127.918 401.768 128.134 400.498L128.438 398.211L126.33 397.538C117.767 394.845 112.393 388.253 109.014 380.898L184.311 382.27C180.487 391.124 176.689 395.569 176.409 395.887C176.396 395.9 176.384 395.912 176.371 395.938L175.329 397.081L175.901 398.529C175.901 398.529 175.926 398.567 175.926 398.592C176.282 399.469 181.11 411.498 183.625 416.54ZM306.842 411.561C301.76 413.911 258.579 416.045 238.303 413.517C227.365 412.146 200.674 407.852 182.05 396.954C183.968 394.324 187.042 389.498 189.952 382.359C190.498 381.025 191.044 379.603 191.565 378.104C196.24 364.703 199.785 344.748 196.037 317.553C207.509 336.53 232.485 374.115 257.118 387.16C264.792 391.212 273.989 394.54 282.107 397.462C294.633 401.984 307.566 406.646 306.842 411.561Z" fill="#222020"/>
<path d="M186.318 377.227L106.994 375.767C103.056 364.03 103.31 352.179 103.322 351.963C103.36 350.566 102.255 349.384 100.858 349.346C99.4222 349.321 98.2915 350.413 98.2407 351.81C98.2407 352.23 97.9612 362.29 100.972 373.506C101.175 374.242 101.379 374.966 101.595 375.678L51.2864 374.75H51.2355C50.9306 374.75 50.6384 374.801 50.359 374.903C47.0305 362.988 46.1793 348.521 46.0269 338.816C50.8798 345.993 56.927 351.582 64.0032 355.392C67.4841 357.272 71.1175 358.212 74.8398 358.212C77.5711 358.212 80.3533 357.704 83.1736 356.701C110.703 346.92 133.914 291.691 134.892 289.354L136.289 285.975L50.0668 282.609C55.2881 242.699 65.8707 218.057 71.9051 206.625C71.9178 206.613 71.9178 206.6 71.9305 206.587C73.0231 204.517 73.9632 202.891 74.7127 201.684C74.7254 201.633 74.7635 201.583 74.7889 201.544C74.8143 201.494 74.8271 201.468 74.8398 201.456C75.0557 201.113 75.2463 200.808 75.4241 200.541C76.1356 200.541 76.8343 200.516 77.533 200.49C73.7726 213.192 62.8471 251.667 63.9396 266.96L64.1175 269.323H109.039L109.573 267.507C109.624 267.316 115.34 248.06 124.538 227.495C134.867 204.377 145.462 188.715 155.46 181.666L161.342 198.966C156.311 204.542 148.371 214.412 141.46 227.749C141.447 227.749 141.447 227.762 141.447 227.762C141.028 228.587 140.596 229.413 140.19 230.264C135.121 240.527 130.776 252.696 128.756 266.414L128.337 269.247L131.208 269.323C131.589 269.336 136.404 269.463 142.286 269.463C147.126 269.463 152.703 269.374 157.099 269.069L162.435 281.238C159.894 283.435 155.396 288.236 155.396 294.727C155.396 297.318 156.324 299.516 158.09 301.078C160.719 303.39 164.543 303.746 166.716 303.708C168.189 305.892 171.48 309.83 176.714 310.922C177.641 311.126 178.569 311.214 179.522 311.214C182.672 311.214 185.924 310.148 189.278 308.014C195.516 340.048 191.463 362.874 186.306 377.227H186.318Z" fill="#EC8D49"/>
<path d="M128.718 290.764C123.217 302.933 103.196 344.202 81.4715 351.912C76.1231 353.817 71.1939 353.487 66.4172 350.921C56.8891 345.79 50.4481 337.66 46.116 328.832C45.557 327.702 45.0362 326.559 44.5534 325.403C37.9981 310.008 37.2486 293.406 37.2231 287.208L128.718 290.764Z" fill="#EC8D49"/>
<path d="M115.988 397.919C101.201 399.431 86.845 405.744 84.6472 419.945L15.791 419.97C18.281 397.132 56.0503 395.087 56.4314 395.074L61.8815 394.82L58.1846 390.806C55.6057 388.011 53.5603 384.214 51.9469 379.844L103.398 380.784C106.409 388.227 110.665 394.007 115.988 397.919Z" fill="#C09368"/>
<path d="M183.625 416.54C184.413 418.103 183.955 418.751 183.765 419.03C183.384 419.576 182.647 419.919 181.834 419.919L89.8052 419.945C93.4258 402.2 122.074 402.555 125.466 402.67C126.723 402.695 127.917 401.768 128.133 400.498L128.438 398.211L126.329 397.538C117.767 394.845 112.393 388.253 109.014 380.898L184.311 382.27C180.487 391.123 176.689 395.569 176.409 395.887C176.396 395.899 176.384 395.912 176.371 395.938L175.329 397.081L175.901 398.529C175.901 398.529 175.926 398.567 175.926 398.592C176.282 399.469 181.11 411.498 183.625 416.54Z" fill="#C09368"/>
<path d="M306.842 411.561C301.761 413.911 258.579 416.045 238.304 413.517C227.365 412.145 200.674 407.852 182.05 396.954C183.968 394.324 187.043 389.498 189.952 382.359C190.498 381.025 191.044 379.603 191.565 378.104C196.24 364.703 199.785 344.748 196.037 317.553C207.509 336.53 232.485 374.115 257.118 387.16C264.792 391.212 273.989 394.54 282.107 397.462C294.634 401.984 307.566 406.645 306.842 411.561Z" fill="#C09368"/>
<path d="M154.926 264.115C148.015 264.471 138.856 264.382 134.244 264.306C136.023 254.144 139.161 244.859 142.87 236.653L154.926 264.115Z" fill="#C09368"/>
<path d="M194.564 292.072C194.271 295.858 192.569 298.995 189.355 301.662C185.099 305.219 181.212 306.654 177.807 305.956C173.005 304.978 170.413 299.986 170.388 299.948L169.575 298.347L167.809 298.55C166.691 298.69 163.134 298.741 161.457 297.255C161.05 296.886 160.491 296.226 160.491 294.727C160.491 288.592 166.919 284.184 166.983 284.134L168.761 282.952L145.78 230.645C151.7 219.162 158.42 210.245 163.261 204.58L186.039 271.419L186.192 271.889L186.535 272.27C186.611 272.371 195.326 282.444 194.564 292.072Z" fill="#C09368"/>
<path d="M58.3118 224.942C55.4025 232.982 52.4425 242.788 49.8381 254.5C24.6332 255.274 12.4627 233.02 6.65689 213.967C4.21771 205.927 4.62424 199.398 7.88919 194.558C12.3864 187.864 21.2285 186.01 23.9599 185.591C31.0615 190.227 38.1885 193.58 45.2265 195.93C45.9507 197.619 46.1285 199.207 45.7728 200.744C44.693 205.406 38.9634 208.708 36.2066 210.296C35.1776 210.893 34.6186 211.211 34.1994 211.643C31.5823 214.259 30.439 217.105 30.8074 220.102C31.2774 223.951 34.301 227.571 39.7638 230.848C41.3518 231.801 43.0541 232.284 44.8454 232.284C45.8617 232.284 46.9035 232.131 47.9833 231.826C51.1848 230.924 54.6403 228.613 58.3118 224.942Z" fill="#C09368"/>
<path d="M101.506 61.5671C93.3625 61.0717 84.2155 62.1768 74.8145 66.4193C70.4316 62.6087 62.771 55.1017 58.6294 45.9816C53.8908 35.5532 58.5151 13.9469 63.9779 6.82101C65.1339 5.30946 65.9089 5.06812 65.9724 5.06812C70.2791 6.64318 86.9215 34.2195 101.506 61.5671Z" fill="#C09368"/>
<path d="M213.175 82.9956C208.563 80.2519 168.101 77.4194 131.195 76.2508L130.446 76.2254L129.823 75.7935C129.15 75.3362 120.422 69.4678 107.781 67.245C106.651 67.029 105.482 66.8639 104.288 66.7242C96.7416 65.8731 88.0393 66.4574 78.9686 70.1411C77.3552 70.7889 75.7164 71.551 74.0775 72.4147C71.6383 73.6976 69.1737 75.2219 66.7091 77.0256C40.0813 96.3963 37.2737 126.958 37.2483 127.262L37.134 128.749L35.7747 129.371C35.5206 129.485 10.43 141.095 9.15957 156.947C8.51166 164.912 14.1396 172.927 25.8655 180.764C25.9163 180.802 25.9544 180.827 25.9925 180.853C32.1159 184.93 38.2647 188.004 44.3626 190.24C45.849 190.798 47.3227 191.294 48.7964 191.738C57.0794 194.291 65.1847 195.371 72.8706 195.485C73.8743 195.498 74.8906 195.498 75.8815 195.485H75.8942C77.0884 195.46 78.2445 195.422 79.4132 195.358C80.5058 195.295 81.5856 195.219 82.6655 195.117C107.616 192.882 126.101 181.589 127.371 180.789C128.565 180.052 130.128 180.408 130.878 181.602C131.614 182.796 131.259 184.358 130.064 185.108C128.718 185.946 109.255 197.835 82.9196 200.16C80.0611 209.75 69.0594 247.628 68.9324 264.242H105.241C108.785 252.759 128.172 193.288 153.745 176.699L146.262 154.724L146.847 153.721C155.193 139.431 150.391 106.177 150.34 105.834L149.413 99.5718L154.418 103.459C166.906 113.176 187.22 109.048 195.376 106.825C203.431 104.627 210.113 96.2947 212.552 89.1942C213.759 85.663 213.518 83.6942 213.162 82.9956H213.175ZM95.268 141.311C95.268 141.4 95.268 141.502 95.268 141.59C95.268 145.172 90.0339 148.081 83.5802 148.081C77.1265 148.081 72.1973 145.338 71.9051 141.895C68.691 140.498 66.1121 136.7 64.8798 131.772C63.9269 130.362 63.3426 128.393 63.3426 126.208C63.3426 124.468 63.711 122.868 64.3462 121.585C65.3625 113.824 69.593 108.006 74.6746 108.006C78.0666 108.006 81.0902 110.61 83.0212 114.662C84.9649 110.61 87.9758 108.006 91.3678 108.006C97.2117 108.006 101.95 115.729 101.95 125.256C101.95 132.547 99.1808 138.783 95.2553 141.311H95.268Z" fill="#C09368"/>
<path d="M112.5 162C112.5 166.265 109.247 169.5 105.5 169.5C101.753 169.5 98.5 166.265 98.5 162C98.5 157.735 101.753 154.5 105.5 154.5C109.247 154.5 112.5 157.735 112.5 162Z" fill="#F9B482" stroke="#222020" stroke-width="5"/>
</g>
<defs>
<clipPath id="clip0_1810_9039">
<rect width="312" height="425" fill="white"/>
</clipPath>
</defs>
</svg>
