<svg width="113" height="97" viewBox="0 0 113 97" fill="none" xmlns="http://www.w3.org/2000/svg">
<g id="Layer_5" clip-path="url(#clip0_1930_9538)">
<path id="Vector" d="M12.8297 84.2093C11.183 80.6644 11.5417 76.6045 11.9679 72.7185L15.5332 40.2099C11.748 38.2463 9.04418 34.6335 8.27904 30.381C6.9193 22.8238 11.9358 15.5607 19.4874 14.202C23.2959 13.5167 27.1901 14.5087 30.2331 16.7777C32.2812 13.5926 35.5853 11.3055 39.3938 10.6203C43.2024 9.93503 47.1096 10.9246 50.1395 13.1961C52.2007 10.0086 55.5048 7.72149 59.3133 7.03624C63.1219 6.35099 67.016 7.34293 70.059 9.61202C72.1071 6.42691 75.4112 4.1398 79.2197 3.45455C86.7583 2.09817 94.0049 7.15479 95.3647 14.712C96.1275 18.9517 94.8526 23.2804 91.9916 26.453L108.066 57.7435C110.521 62.5251 110.535 68.2351 108.097 73.011C105.758 77.584 101.553 80.7208 96.5536 81.6204L30.513 93.5028C25.4873 94.4071 20.4394 92.9351 16.6509 89.4513C15.0276 87.9536 13.7388 86.1663 12.8297 84.2093ZM20.3013 85.6341C22.8577 87.9775 26.2407 88.9821 29.5912 88.3793L95.6317 76.4968C98.956 75.8987 101.779 73.7908 103.345 70.7056C105.066 67.3545 105.048 63.4966 103.318 60.1184L85.4301 25.2798L87.0542 23.943C89.5175 21.9394 90.6873 18.7536 90.1296 15.6539C89.2769 10.9147 84.8008 7.73975 80.1416 8.57807C76.9351 9.155 74.3099 11.6109 73.4442 14.8345L71.9703 20.3097L68.6933 15.6893C66.7229 12.9231 63.494 11.5734 60.2352 12.1598C56.9763 12.7461 54.4035 15.1926 53.5247 18.4185L52.0508 23.8938L48.7738 19.2733C46.8165 16.5048 43.5745 15.1574 40.3157 15.7438C37.0569 16.3302 34.484 18.7766 33.6183 22.0002L32.1443 27.4755L28.8674 22.855C26.9101 20.0865 23.6681 18.7391 20.4093 19.3255C15.7501 20.1638 12.6614 24.6998 13.5141 29.4391C14.0741 32.5516 16.2787 35.117 19.2729 36.1386L21.2742 36.8232L17.0669 72.2389L17.0931 72.2342L16.6777 75.7074C16.2213 79.4788 17.5332 83.0908 20.3013 85.6341Z" fill="#222020"/>
<path id="Vector_2" d="M16.678 75.7073L17.0934 72.2342L17.0673 72.2389L21.2745 36.8232L19.2732 36.1386C16.279 35.117 14.0745 32.5516 13.5144 29.439C12.6617 24.6998 15.7504 20.1638 20.4096 19.3255C23.6684 18.7391 26.9104 20.0864 28.8678 22.855L32.1447 27.4754L33.6186 22.0002C34.4843 18.7766 37.1226 16.3184 40.316 15.7438C43.5094 15.1692 46.8168 16.5047 48.7742 19.2733L52.0511 23.8937L53.525 18.4185C54.4038 15.1925 57.029 12.7367 60.2355 12.1597C63.442 11.5828 66.7232 12.9231 68.6937 15.6893L71.9706 20.3097L73.4445 14.8345C74.3102 11.6108 76.9354 9.15498 80.1419 8.57805C84.8012 7.73973 89.2772 10.9146 90.1299 15.6539C90.6876 18.7536 89.5179 21.9394 87.0545 23.943L85.4304 25.2798L103.319 60.1184C105.048 63.4966 105.066 67.3545 103.345 70.7056C101.779 73.7907 98.9563 75.8987 95.6321 76.4968L29.5915 88.3793C26.241 88.9821 22.8581 87.9775 20.3016 85.6341C17.5336 83.0908 16.2216 79.4788 16.678 75.7073ZM48.8309 69.0759C52.5871 68.4 55.0083 66.0867 56.4047 64.2354L59.135 60.6366L62.9354 63.0603C64.8764 64.3111 67.9652 65.6331 71.7214 64.9573C79.1944 63.6127 83.9412 55.0758 82.2888 45.8919C80.6364 36.708 73.2116 30.361 65.7385 31.7056C61.9823 32.3815 59.5658 34.7205 58.1671 36.5589L55.4522 40.1682L51.6625 37.7293C49.6977 36.496 46.6043 35.1484 42.8612 35.8219C35.3881 37.1665 30.6459 45.729 32.2937 54.8873L32.2807 54.8896C33.9331 64.0736 41.3448 70.4228 48.8309 69.0759Z" fill="#EC8D49"/>
<path id="Vector_3" d="M32.2942 54.8873C30.6464 45.729 35.3886 37.1665 42.8617 35.8219C46.6047 35.1484 49.6981 36.496 51.663 37.7293L55.4526 40.1682L58.1676 36.5589C59.5663 34.7205 61.9828 32.3815 65.739 31.7057C73.2121 30.361 80.6368 36.708 82.2893 45.8919C83.9417 55.0758 79.1949 63.6127 71.7218 64.9573C67.9657 65.6331 64.8769 64.3111 62.9359 63.0603L59.1355 60.6366L56.4051 64.2354C55.0087 66.0867 52.5876 68.4 48.8314 69.0759C41.3452 70.4228 33.9335 64.0736 32.2811 54.8897L32.2942 54.8873ZM76.8714 57.9083C80.6276 57.2324 82.862 52.2287 81.8733 46.7337C80.8846 41.2387 77.0439 37.3148 73.2877 37.9906C69.5316 38.6664 67.2972 43.6702 68.2882 49.178C69.2792 54.6858 73.1153 58.5841 76.8714 57.9083ZM54.6354 61.9091C58.3916 61.2333 60.6259 56.2295 59.6372 50.7345C58.6485 45.2396 54.8079 41.3156 51.0517 41.9914C47.2955 42.6673 45.0612 47.6711 46.0522 53.1788C47.0432 58.6866 50.8923 62.5826 54.6354 61.9091Z" fill="#FCFCFC"/>
<path id="Vector_4" d="M68.288 49.178C69.2767 54.673 73.1151 58.5842 76.8713 57.9083C80.6274 57.2325 82.8618 52.2287 81.8731 46.7337C80.8844 41.2388 77.0437 37.3148 73.2876 37.9906C69.5314 38.6665 67.297 43.6703 68.288 49.178Z" fill="#222020"/>
<path id="Vector_5" d="M46.0517 53.1788C47.0404 58.6738 50.8919 62.5826 54.6349 61.9091C58.378 61.2356 60.6255 56.2295 59.6368 50.7345C58.6481 45.2396 54.8074 41.3156 51.0512 41.9914C47.2951 42.6673 45.0607 47.6711 46.0517 53.1788Z" fill="#222020"/>
</g>
<defs>
<clipPath id="clip0_1930_9538">
<rect width="100" height="80" fill="white" transform="matrix(-0.984196 0.177083 0.177083 0.984196 98.4199 0)"/>
</clipPath>
</defs>
</svg>
