<svg width="36" height="32" viewBox="0 0 36 32" fill="none" xmlns="http://www.w3.org/2000/svg">
<path d="M19.4716 2.92019L17.9958 4.44132L16.5129 2.91649C14.6987 1.05124 12.2382 0.00345226 9.67267 0.00362578C7.10715 0.0037993 4.64678 1.05192 2.8328 2.91741C1.01882 4.78291 -0.00016873 7.31296 2.09564e-08 9.951C0.000168772 12.589 1.01948 15.1189 2.8337 16.9842L17.042 31.5941C17.2951 31.854 17.6382 32 17.9958 32C18.3535 32 18.6966 31.854 18.9497 31.5941L33.1706 16.9805C34.9827 15.1148 36.0003 12.5858 36 9.94903C35.9997 7.31227 34.9813 4.7835 33.1688 2.91834C32.2696 1.99315 31.202 1.25922 30.0269 0.758477C28.8518 0.257735 27.5922 0 26.3202 0C25.0482 0 23.7886 0.257735 22.6135 0.758477C21.4384 1.25922 20.3707 1.995 19.4716 2.92019ZM31.2558 15.0226L17.9958 28.6518L4.74134 15.0226C4.08812 14.3581 3.56907 13.5673 3.21403 12.6958C2.85899 11.8243 2.67496 10.8892 2.67251 9.94429C2.67007 8.9994 2.84926 8.06333 3.19978 7.18989C3.55031 6.31644 4.06526 5.52284 4.71503 4.8547C5.36481 4.18656 6.13659 3.65706 6.98603 3.29662C7.83547 2.93619 8.74581 2.75194 9.66473 2.75445C10.5836 2.75696 11.493 2.9462 12.3406 3.31127C13.1881 3.67635 13.9572 4.21006 14.6035 4.88175L17.0474 7.39291C17.1746 7.52381 17.3259 7.62725 17.4925 7.69714C17.6591 7.76704 17.8376 7.80197 18.0175 7.7999C18.1974 7.79784 18.3751 7.7588 18.5401 7.68509C18.7052 7.61139 18.8542 7.5045 18.9785 7.37071L21.3792 4.88175C22.7025 3.6152 24.452 2.92576 26.2595 2.95847C28.0671 2.99117 29.7919 3.74347 31.071 5.0571C32.3502 6.37073 33.084 8.1433 33.1181 10.0019C33.1522 11.8605 32.4858 13.6603 31.2558 15.0226Z" fill="#D5D4D4"/>
</svg>
